<svg width="14" height="15" viewBox="0 0 14 15" fill="none" xmlns="http://www.w3.org/2000/svg">
<path d="M14 14.6699C14 14.8521 13.8672 15 13.7036 15H0.766983C0.603381 15 0.470589 14.8521 0.470589 14.6699V0.14582C0.470589 -0.0363919 0.525427 -0.0495898 0.593282 0.116095L2.3253 4.35579C2.39316 4.52184 2.579 4.63242 2.74053 4.60302L4.54933 4.2736C4.71086 4.24424 4.90826 4.3482 4.99033 4.506L8.16367 10.612C8.24578 10.7698 8.44344 10.8755 8.60529 10.8481L10.4808 10.5292C10.6426 10.5018 10.8762 10.5734 11.0027 10.689L13.7712 13.2254C13.8974 13.3412 14 13.5829 14 13.7651V14.6699H14Z" fill="#AABACC"/>
</svg>
